<?xml version="1.0" encoding="UTF-8" standalone="no"?>
<svg
   width="761.04791"
   height="109.86603"
   xml:space="preserve"
   overflow="hidden"
   version="1.1"
   id="svg11"
   xmlns="http://www.w3.org/2000/svg"
   xmlns:svg="http://www.w3.org/2000/svg"><defs
     id="defs3"><clipPath
       id="clip0"><rect
         x="149"
         y="288"
         width="817"
         height="120"
         id="rect1" /></clipPath><clipPath
       id="clip1"><rect
         x="149"
         y="288"
         width="817"
         height="120"
         id="rect2" /></clipPath><clipPath
       id="clip2"><rect
         x="150"
         y="289"
         width="816"
         height="118"
         id="rect3" /></clipPath></defs><g
     clip-path="url(#clip0)"
     transform="matrix(0.93265673,0,0,0.93265673,-139.89851,-269.63199)"
     id="g11"><g
       clip-path="url(#clip1)"
       id="g10"><g
         clip-path="url(#clip2)"
         id="g9"><g
           id="g8"><g
             id="g7"><path
               d="M 294.539,0 V 117.799 H 412.337 V 0 Z m 84.628,87.8711 c -2.992,1.5795 -6.235,2.8265 -9.56,3.5747 -3.741,0.9144 -7.565,1.3301 -11.389,1.3301 -4.905,0.0831 -9.726,-0.7482 -14.299,-2.3277 -4.073,-1.4133 -7.731,-3.6578 -10.724,-6.6506 -2.993,-2.9928 -5.32,-6.6506 -6.734,-10.641 -1.579,-4.5723 -2.41,-9.394 -2.327,-14.2156 -0.083,-4.7386 0.748,-9.4771 2.411,-13.9663 1.496,-3.9904 3.907,-7.6482 6.983,-10.641 3.159,-2.9927 6.9,-5.3204 10.973,-6.8168 4.572,-1.6627 9.477,-2.4109 14.382,-2.4109 3.492,0 6.983,0.3326 10.392,1.1639 3.159,0.7482 6.235,1.8289 9.144,3.3253 v 12.8024 c -2.577,-1.6627 -5.403,-2.9928 -8.313,-3.8241 -3.076,-0.9145 -6.235,-1.3301 -9.477,-1.3301 -4.074,-0.0832 -8.064,0.7482 -11.639,2.5771 -3.159,1.6626 -5.736,4.2397 -7.398,7.3156 -1.829,3.6579 -2.661,7.6482 -2.578,11.7217 -0.083,4.0735 0.749,8.0639 2.494,11.7217 1.58,3.159 4.074,5.7362 7.233,7.3988 3.575,1.7458 7.482,2.6602 11.472,2.5771 6.734,0 13.301,-1.8289 18.954,-5.4036 z M 206.335,63.4301 h -11.888 v 17.8735 h 11.722 c 3.99,0 7.149,-0.7482 9.311,-2.2446 2.161,-1.4964 3.325,-3.9072 3.242,-6.5674 -0.083,-6.0687 -4.157,-9.0615 -12.387,-9.0615 z m -1.746,-26.9349 h -10.142 v 16.4602 h 10.142 c 3.492,0 6.152,-0.7482 7.981,-2.2446 1.829,-1.5795 2.91,-3.9072 2.743,-6.318 0,-5.2374 -3.574,-7.8976 -10.724,-7.8976 z m 1.746,26.9349 h -11.888 v 17.8735 h 11.722 c 3.99,0 7.149,-0.7482 9.311,-2.2446 2.161,-1.4964 3.325,-3.9072 3.242,-6.5674 -0.083,-6.0687 -4.157,-9.0615 -12.387,-9.0615 z m 6.235,-12.7193 c 1.829,-1.5795 2.91,-3.9072 2.743,-6.318 0,-5.2374 -3.574,-7.8976 -10.724,-7.8976 h -10.142 v 16.4602 h 10.142 c 3.492,0.0831 6.152,-0.665 7.981,-2.2446 z M 147.311,0 V 117.799 H 265.11 V 0 Z m 82.135,83.1325 c -2.162,2.9928 -5.154,5.2374 -8.563,6.5675 -4.323,1.6626 -8.812,2.4108 -13.467,2.3277 H 180.98 V 25.7711 h 24.856 c 7.316,0 12.969,1.4964 17.042,4.406 3.991,2.9096 6.069,7.1494 6.069,12.6361 0.083,2.9097 -0.665,5.7362 -2.161,8.2302 -1.58,2.4108 -3.741,4.3229 -6.402,5.4867 3.575,1.0807 6.734,3.2422 8.979,6.1518 2.078,2.9928 3.242,6.5675 3.076,10.2253 0.166,3.6579 -0.915,7.2326 -2.993,10.2253 z M 206.335,63.4301 h -11.888 v 17.8735 h 11.722 c 3.99,0 7.149,-0.7482 9.311,-2.2446 2.161,-1.4964 3.325,-3.9072 3.242,-6.5674 -0.083,-6.0687 -4.157,-9.0615 -12.387,-9.0615 z m 6.235,-12.7193 c 1.829,-1.5795 2.91,-3.9072 2.743,-6.318 0,-5.2374 -3.574,-7.8976 -10.724,-7.8976 h -10.142 v 16.4602 h 10.142 c 3.492,0.0831 6.152,-0.665 7.981,-2.2446 z M 59.0241,63.4301 h -11.888 v 17.8735 h 11.7217 c 3.9904,0 7.1494,-0.7482 9.3109,-2.2446 2.1614,-1.4964 3.4084,-3.9072 3.2421,-6.5674 0,-6.0687 -4.1566,-9.0615 -12.3867,-9.0615 z M 57.3614,36.4952 H 47.1361 v 16.4602 h 10.2253 c 3.4916,0 6.1518,-0.7482 7.9808,-2.2446 1.8289,-1.5795 2.9096,-3.9072 2.7433,-6.318 0,-5.2374 -3.5747,-7.8976 -10.7241,-7.8976 z m 1.6627,26.9349 h -11.888 v 17.8735 h 11.7217 c 3.9904,0 7.1494,-0.7482 9.3109,-2.2446 2.1614,-1.4964 3.4084,-3.9072 3.2421,-6.5674 0,-6.0687 -4.1566,-9.0615 -12.3867,-9.0615 z m 6.3181,-12.7193 c 1.8289,-1.5795 2.9096,-3.9072 2.7433,-6.318 0,-5.2374 -3.5747,-7.8976 -10.7241,-7.8976 H 47.1361 v 16.4602 h 10.2253 c 3.4916,0.0831 6.1518,-0.665 7.9808,-2.2446 z M 0,0 V 117.799 H 117.799 V 0 Z m 82.1349,83.1325 c -2.1614,2.9928 -5.1542,5.2374 -8.6457,6.5675 -4.2398,1.6626 -8.8121,2.4108 -13.4675,2.3277 H 33.7518 V 25.7711 h 24.8566 c 7.3157,0 13.0518,1.4964 17.0422,4.406 3.9904,2.9096 6.0687,7.1494 6.0687,12.6361 0.0831,2.9097 -0.6651,5.7362 -2.1615,8.2302 -1.5795,2.4108 -3.7409,4.3229 -6.4012,5.4867 3.5747,1.0807 6.7338,3.2422 8.9783,6.1518 2.1615,2.9928 3.2422,6.5675 3.0759,10.2253 0.0832,3.6579 -0.9976,7.2326 -3.0759,10.2253 z M 59.0241,63.4301 h -11.888 v 17.8735 h 11.7217 c 3.9904,0 7.1494,-0.7482 9.3109,-2.2446 2.1614,-1.4964 3.4084,-3.9072 3.2421,-6.5674 0,-6.0687 -4.1566,-9.0615 -12.3867,-9.0615 z m 6.3181,-12.7193 c 1.8289,-1.5795 2.9096,-3.9072 2.7433,-6.318 0,-5.2374 -3.5747,-7.8976 -10.7241,-7.8976 H 47.1361 v 16.4602 h 10.2253 c 3.4916,0.0831 6.1518,-0.665 7.9808,-2.2446 z"
               fill="#000000"
               fill-rule="nonzero"
               fill-opacity="1"
               transform="matrix(1.00201,0,0,1,150,289.101)"
               id="path3" /><path
               d="m 514.923,14.7145 h 18.289 V 103.084 H 513.925 C 507.524,92.7759 500.957,82.4675 494.389,72.159 487.822,61.8506 481.254,51.7916 474.853,42.0651 V 103.084 H 456.564 V 14.7145 h 19.287 c 6.65,9.9759 13.218,19.9518 19.702,29.9277 6.484,9.9759 12.886,20.2012 19.37,30.5096 z"
               fill="#eb0000"
               fill-rule="nonzero"
               fill-opacity="1"
               transform="matrix(1.00201,0,0,1,150,289.101)"
               id="path4" /><path
               d="m 569.707,87.2891 h 44.144 V 103.084 H 550.753 V 14.7145 h 60.77 v 15.8783 h -41.816 v 19.1204 h 37.16 v 15.7952 h -37.16 z"
               fill="#eb0000"
               fill-rule="nonzero"
               fill-opacity="1"
               transform="matrix(1.00201,0,0,1,150,289.101)"
               id="path5" /><path
               d="m 721.507,14.7145 h 20.368 c -3.492,14.9638 -7.15,29.8445 -10.974,44.6421 -3.907,14.7145 -7.897,29.3458 -12.137,43.7274 h -20.118 c -2.827,-9.9756 -5.57,-19.9515 -8.23,-29.9274 -2.661,-9.9759 -5.321,-19.9518 -7.815,-29.9277 -2.494,9.9759 -4.988,19.9518 -7.648,29.9277 -2.66,9.9759 -5.404,19.9518 -8.147,29.9274 h -20.118 c -4.24,-14.3816 -8.23,-29.0129 -12.137,-43.7274 -3.908,-14.7144 -7.566,-29.5952 -10.974,-44.6421 h 20.783 c 2.078,11.4722 4.24,22.8614 6.568,34.3337 2.327,11.4723 4.738,22.6952 7.315,33.7518 5.487,-21.5313 10.724,-42.9795 15.712,-64.4277 h 18.539 c 2.494,10.5578 4.988,21.0325 7.565,31.5903 2.577,10.4747 5.237,20.9494 7.981,31.4241 2.494,-10.8903 4.821,-21.9469 7.149,-33.1698 2.162,-11.0567 4.323,-22.2796 6.318,-33.5024 z"
               fill="#eb0000"
               fill-rule="nonzero"
               fill-opacity="1"
               transform="matrix(1.00201,0,0,1,150,289.101)"
               id="path6" /><path
               d="m 814.366,77.147 c 0,5.8193 -1.413,10.8903 -4.323,15.047 -3.159,4.3229 -7.482,7.6482 -12.47,9.56 -5.403,2.162 -11.971,3.242 -19.619,3.242 -4.822,0 -9.643,-0.582 -14.382,-1.579 -4.738,-1.081 -9.311,-2.744 -13.634,-5.0712 V 81.2205 c 8.397,5.2373 18.123,8.0638 28.099,8.0638 5.57,0 9.893,-0.9144 12.803,-2.8265 2.743,-1.6626 4.489,-4.6554 4.406,-7.8976 0.166,-2.2445 -0.665,-4.406 -2.162,-5.9855 -1.662,-1.5795 -3.574,-2.7434 -5.736,-3.4916 -2.66,-0.9144 -5.32,-1.7458 -8.064,-2.4108 -4.406,-0.9976 -8.646,-2.3277 -12.885,-3.9904 -3.409,-1.247 -6.568,-3.0759 -9.394,-5.2373 -2.494,-1.9121 -4.489,-4.4061 -5.82,-7.3157 -1.413,-3.2422 -2.078,-6.6506 -1.995,-10.2253 -0.166,-5.1542 1.33,-10.2253 4.24,-14.465 3.076,-4.1567 7.233,-7.3988 12.054,-9.3109 5.154,-2.1614 11.389,-3.2422 18.539,-3.2422 4.655,0 9.311,0.4988 13.883,1.5796 4.24,0.9975 8.313,2.4108 12.22,4.3229 v 16.7927 c -3.824,-2.3277 -7.98,-4.0735 -12.303,-5.1542 -4.489,-1.247 -9.145,-1.8289 -13.8,-1.8289 -4.988,0 -8.895,0.8313 -11.639,2.5771 -2.66,1.4964 -4.239,4.406 -4.156,7.3988 -0.083,1.9952 0.582,3.9904 1.995,5.4867 1.579,1.4964 3.491,2.6603 5.653,3.3253 2.411,0.8314 5.32,1.7458 8.562,2.494 4.24,1.0807 8.148,2.2446 11.722,3.4916 3.409,1.1638 6.651,2.8265 9.56,4.9048 2.744,1.912 4.905,4.4892 6.402,7.5651 1.579,3.5747 2.327,7.3988 2.244,11.306 z"
               fill="#eb0000"
               fill-rule="nonzero"
               fill-opacity="1"
               transform="matrix(1.00201,0,0,1,150,289.101)"
               id="path7" /></g></g></g></g></g></svg>
