<svg xmlns="http://www.w3.org/2000/svg" version="1" width="921.26" height="141.732"><path d="M73.882 37.744c-2.21 0-4.053-.25-6.141-.495v36.259c0 .863-.123 1.108-.618 1.475l-20.65 13.155c3.074 1.475 6.761 2.462 10.577 2.462 13.024 0 27.77-7.134 34.66-24.955.366-.986 1.224-1.231 1.224.489v1.231c0 19.541-14.875 37.116-36.87 37.116-23.969 0-38.347-18.07-38.347-36.872 0-14.133 7.733-27.286 25.314-32.816.741-.252.865.116.368.489-7.74 6.02-11.922 15.856-11.922 25.689 0 10.448 4.181 20.773 13.521 26.309l5.163-3.939c1.727-1.352 2.088-2.578 2.088-4.55v-44.74c-5.652-2.088-10.686-3.319-15.364-3.319-6.388 0-12.168 2.823-17.82 9.712-.613.736-.986.736-.986 0 .741-13.889 13.153-21.757 25.444-21.757 14.139 0 27.164 6.89 41.426 6.89 5.034 0 10.202-1.114 14.502-3.447.613-.245.734.244.489.734-4.421 11.066-15.243 14.88-26.057 14.88zm66.872 65.635c-.496.49-.496.368-.865.123l-9.833-8.726c-.986-.865-1.476-1.599-1.476-3.197v-33.681c0-.366 0-.739-.491-1.108l-3.319-2.953c-.373-.238-.863-.361-1.352-.116l-6.265 2.946v31.721c0 .49-.128.981.366 1.347l2.829 2.456c.736.613 1.96 1.354 3.069.986l.979-.373c1.231-.491 1.483.244.741.862l-11.304 9.712c-.496.49-.619.368-.986.123l-9.959-8.849c-1.224-.986-1.224-1.231-1.224-2.829v-54.574c0-.613 0-.741-.618-1.231l-1.231-1.109c-1.226-1.102-1.715-.857-3.314-.116l-2.462 1.102c-.368.123-.736-.368-.123-.986l13.026-10.937c.496-.49.496-.366.863-.122l7.869 7.256c.986.981 1.477 1.594 1.477 3.191v20.526l16.343-10.323c.496-.247.986-.247 1.354.122l7.992 7.379c1.102.981 1.347 1.72 1.347 2.946v33.681c0 .618 0 .741.618 1.231l3.074 2.578c1.226 1.109 1.715.863 3.314.128l2.462-1.107c.366-.123.741.366.122.979l-13.024 10.943zm52.357-40.685l-21.757 13.644v10.446c0 .979.123 1.354.986 1.72l7.006 3.687c1.224.613 3.319 1.231 4.55.49l6.515-3.803c1.102-.618 1.967-.25 1.349.247l-17.82 14.378c-.373.366-.245.245-.736 0l-15.861-8.36c-1.231-.611-1.597-.862-1.597-2.578v-38.843c0-.618.25-.863.979-1.108l25.941-8.36c.368-.121.735-.244.979.247l9.712 17.208c.245.373.245.741-.245.986zm-21.505-11.924l-.252.117v23.857l8.605-7.134c.495-.366.495-.618.25-.979l-8.603-15.861zm110.356 37.245l-17.699 15.243c-.495.366-.863.611-1.352.366-10.577-5.284-19.669-8.237-28.886-8.237-7.624 0-15.119 2.58-23.478 8.115-.741.49-1.231.366-.741-.489 4.428-7.134 10.33-14.625 17.704-18.072.122-.489.25-2.088.25-4.305v-36.136c0-.491.247-.736.736-.981l14.01-8.481c-3.074.613-6.515 1.109-9.467 1.109-12.779 0-19.296-6.393-21.634-16.473-.123-.496.122-.618.49-.496 6.521 3.197 11.929 4.305 17.214 4.305 8.848 0 21.505-4.794 29.253-4.794 15.609 0 24.219 6.516 24.219 27.784v40.189c0 .62-.252.986-.618 1.354zm-14.874-41.543c0-11.311-3.564-14.385-9.094-14.385-4.06 0-9.223 1.599-14.751 2.823v36.877c0 .62-.244 1.109-.613 1.361l-14.623 11.665c3.802-1.592 7.985-2.328 12.161-2.328 8.971 0 18.444 3.314 26.062 6.884.613.366.857 0 .857-.62v-42.277zm59.511 56.907c-.489.49-.613.368-.981.123l-11.188-9.836-13.276 9.836c-.49.366-.613.245-1.102-.123l-8.482-7.624c-1.354-1.102-1.475-1.354-1.475-2.83v-35.886c0-.618.49-.739.734-.862l28.519-11.801c.49-.244.979-.244 1.475.245l7.619 7.624c1.102 1.102 1.481 1.722 1.481 2.457v34.667l2.211 1.965c2.701 2.333 3.067 2.211 4.298 1.592l1.722-.857c1.107-.611 1.965-.122.979.736l-12.535 10.575zm-12.168-45.726c0-.741-.128-1.108-.734-1.72l-4.428-4.421c-.245-.252-.245-.123-.618 0l-3.075 1.347v35.529c0 1.226.252 1.839 1.115 2.578l1.599 1.47c1.102.986 2.454 1.475 4.053.741l2.088-.986v-34.538zm40.809 45.726c-.497.49-.618.368-.986.123l-9.95-8.849c-1.232-.986-1.232-1.231-1.232-2.829v-33.926c0-.611 0-.739-.611-1.231l-1.231-1.102c-1.231-1.107-1.722-.862-3.319-.128l-2.463 1.109c-.366.122-.734-.368-.122-.981l13.031-10.943c.496-.489.496-.368.857-.122l7.869 7.249c.986.986 1.475 1.599 1.475 3.197v33.441c0 .49-.121.981.368 1.347l2.829 2.456c.741.613 1.965 1.354 3.067.986l.986-.373c1.231-.491 1.475.244.741.862l-11.311 9.712zm-6.27-61.824c-.361.366-.491.244-.857 0l-9.346-8.237c-.245-.252-.245-.496.123-.865l9.223-8.113c.366-.245.496-.245.857 0l9.344 8.237c.368.245.368.489 0 .741l-9.344 8.237zm33.926 61.824c-.491.49-.613.368-.981.123l-9.964-8.849c-1.224-.986-1.224-1.231-1.224-2.829v-54.574c0-.613 0-.741-.613-1.231l-1.231-1.109c-1.231-1.102-1.72-.857-3.319-.116l-2.456 1.102c-.373.123-.741-.368-.122-.986l13.024-10.937c.491-.49.491-.366.865-.122l7.862 7.256c.986.981 1.477 1.594 1.477 3.191v54.091c0 .49-.123.981.373 1.347l2.823 2.456c.735.613 1.967 1.354 3.069.986l.991-.373c1.226-.491 1.47.244.734.862l-11.309 9.712zm55.928 8.482l-13.522 10.937c-.366.366-.618.25-.856.122-7.134-4.794-12.781-7.004-18.93-7.004-4.305 0-8.603.856-14.139 2.333-.491.129-.613-.245-.368-.613 5.775-8.726 12.908-11.427 19.548-11.427 9.828 0 19.049 6.02 22.736 8.475l.368-.245c.979-2.21 1.354-4.305 1.354-6.27 0-6.265-5.163-11.304-11.556-14.502l-13.155 9.712c-.613.368-.734.368-1.102.123l-8.85-7.992c-1.231-1.109-1.231-1.109-1.231-2.829v-34.539c0-.611 0-.734-.613-1.231l-1.726-1.475c-1.226-1.102-1.715-.857-3.314-.122l-2.462 1.107c-.368.123-.734-.366-.123-.986l13.031-10.936c.491-.491.491-.368.857-.123l8.36 7.624c.979.981 1.475 1.599 1.475 3.197v33.551c0 .62.123 1.231.489 1.599l2.953 2.701c.856.863 2.454.496 3.44 0l1.967-.857v-34.171c0-.613 0-.613-.613-1.109l-1.727-1.475c-1.226-1.102-1.599-.979-3.319-.49l-.981.252c-.366.116-.734-.375-.122-.986l11.556-9.712c.49-.491.49-.368.857-.123l8.358 7.624c.986.981 1.475 1.599 1.475 3.197v32.327c5.162 3.808 7.379 7.617 7.379 11.427 0 4.305-2.094 8.481-7.501 12.908zm84.073-74.116c-2.211 0-4.055-.25-6.143-.495v36.259c0 .863-.128 1.108-.618 1.475l-20.643 13.155c3.067 1.475 6.754 2.462 10.57 2.462 13.024 0 27.771-7.134 34.653-24.955.375-.986 1.238-1.231 1.238.489v1.231c0 19.541-14.874 37.116-36.877 37.116-23.969 0-38.354-18.07-38.354-36.872 0-14.133 7.747-27.286 25.323-32.816.734-.252.863.116.366.489-7.746 6.02-11.922 15.856-11.922 25.689 0 10.448 4.176 20.773 13.521 26.309l5.162-3.694c1.844-1.224 2.095-2.578 2.095-4.543v-44.992c-5.659-2.088-10.698-3.319-15.366-3.319-6.393 0-12.167 2.823-17.819 9.712-.62.736-.993.736-.993 0 .741-13.889 13.155-21.757 25.449-21.757 14.135 0 27.159 6.89 41.416 6.89 5.046 0 10.202-1.114 14.507-3.447.618-.245.734.244.496.734-4.428 11.066-15.248 14.88-26.062 14.88zm62.192 24.95l-21.752 13.644v10.446c0 .979.123 1.354.981 1.72l7.004 3.687c1.231.613 3.326 1.231 4.55.49l6.516-3.803c1.109-.618 1.965-.25 1.354.247l-17.827 14.378c-.366.366-.245.245-.735 0l-15.853-8.36c-1.232-.611-1.599-.862-1.599-2.578v-38.843c0-.618.238-.863.979-1.108l25.941-8.36c.368-.121.734-.244.986.247l9.705 17.208c.252.373.252.741-.25.986zm-21.508-11.924l-.244.117v23.857l8.605-7.134c.49-.366.49-.618.245-.979l-8.605-15.861zm38.72 52.609c-.495.49-.611.368-.979.123l-9.964-8.849c-1.224-.986-1.224-1.231-1.224-2.829v-54.574c0-.613 0-.741-.62-1.231l-1.224-1.109c-1.231-1.102-1.727-.857-3.319-.116l-2.462 1.102c-.368.123-.741-.368-.123-.986l13.026-10.937c.49-.49.49-.366.863-.122l7.869 7.256c.986.981 1.475 1.594 1.475 3.191v54.091c0 .49-.128.981.363 1.347l2.835 2.456c.734.613 1.965 1.354 3.067.986l.986-.373c1.231-.491 1.47.244.736.862l-11.306 9.712zm51.257-40.685l-21.752 13.644v10.446c0 .979.116 1.354.98 1.72l7.004 3.687c1.226.613 3.319 1.231 4.544.49l6.516-3.803c1.108-.618 1.965-.25 1.352.247l-17.826 14.378c-.361.366-.24.245-.734 0l-15.856-8.36c-1.231-.611-1.604-.862-1.604-2.578v-38.843c0-.618.25-.863.986-1.108l25.939-8.36c.368-.121.736-.244.981.247l9.712 17.208c.244.373.244.741-.245.986zm-21.52-11.924l-.232.117v23.857l8.605-7.134c.483-.366.483-.618.238-.979l-8.61-15.861zm66.259 61.091l-13.522 10.937c-.366.366-.611.25-.856.122-7.134-4.794-12.786-7.004-18.929-7.004-4.305 0-8.61.856-14.139 2.333-.491.129-.613-.245-.368-.613 5.775-8.726 12.908-11.427 19.547-11.427 9.834 0 19.044 6.02 22.736 8.475l.368-.245c.979-2.21 1.354-4.305 1.354-6.27 0-6.265-5.163-11.304-11.556-14.502l-13.277 9.836c-.489.366-.857.245-1.224-.123l-8.36-7.624c-1.231-1.102-1.475-1.592-1.475-2.83v-35.886c0-.618.489-.739.736-.862l28.272-11.677c.741-.368 1.225-.368 1.47-.123l7.876 7.869c.979.981 1.468 1.722 1.468 2.578v32.702c5.163 3.808 7.379 7.617 7.379 11.427 0 4.305-2.093 8.481-7.501 12.908zm-15.364-54.452c0-.496-.123-.863-.613-1.352l-4.55-4.545c-.245-.252-.368-.123-.741 0l-2.953 1.347v35.28c0 1.965.504 2.21 2.463 4.053 1.108.986 1.714 1.354 2.828 1.354.986 0 2.58-.741 3.565-1.354v-34.783zm55.431 2.701c-.613.496-1.226.741-1.836.741-.62 0-1.238-.245-1.844-.741l-7.502-6.388-.735.613v34.171c0 .741 0 .864.49 1.231l1.967 1.722c2.088 1.72 2.578 1.965 4.795 1.107l1.475-.618c.981-.368 1.225.122.613.735l-12.665 10.698c-.483.49-.611.368-.979.123l-9.712-8.726c-1.102-.986-1.475-1.354-1.475-2.708v-35.028l-2.946-3.072c-.252-.246-.368-.246-.741 0l-3.687 2.088c-1.102.611-1.475-.247-.734-.857l12.658-10.698c.49-.368.741-.368.986-.123l8.603 8.482 8.482-8.358c.491-.368.857-.491 1.347 0l6.516 6.025c1.231 1.102 1.965 1.72 2.706 1.72.489 0 1.109-.244 1.85-.734l1.713-1.114c1.109-.734 1.599.373.986.991l-10.33 8.721zm45.358 43.27c-.49.49-.618.368-.986.123l-11.188-9.836-13.271 9.836c-.489.366-.611.245-1.107-.123l-8.476-7.624c-1.352-1.102-1.475-1.354-1.475-2.83v-35.886c0-.618.489-.739.736-.862l28.524-11.801c.484-.244.974-.244 1.463.245l7.624 7.624c1.109 1.102 1.476 1.722 1.476 2.457v34.667l2.211 1.965c2.706 2.333 3.079 2.211 4.305 1.592l1.72-.857c1.102-.611 1.967-.122.981.736l-12.536 10.575zm-12.174-45.726c0-.741-.116-1.108-.729-1.72l-4.426-4.421c-.245-.252-.245-.123-.62 0l-3.067 1.347v35.529c0 1.226.244 1.839 1.102 2.578l1.599 1.47c1.102.986 2.462 1.475 4.06.741l2.081-.986v-34.538zm70.068 36.748l-11.182 8.612c-1.236.979-1.483.734-2.958-.123l-11.672-7.134v14.378l3.314 2.836c.373.238.373.49 0 .857l-9.707 8.971c-.245.122-.49.366-.986 0l-10.814-8.726c-.366-.245-.238-.491 0-.865l2.708-3.074v-52.847l-2.708-3.319c-.122-.13-.238-.13-.49 0l-3.692 1.842c-.853.491-1.47-.122-.736-.734l12.536-10.575c.368-.368.863-.368 1.108-.123l9.094 8.971 16.473-8.848c.496-.247.863-.123.979 0l8.244 7.624c.611.611 1.352 1.597 1.352 2.699v37.613c0 .863 0 1.354-.863 1.965zm-14.63-36.381c0-.734-.245-1.354-.734-1.843l-3.442-3.319c-.245-.245-.489-.245-.863-.123l-6.143 2.34v38.96l3.442 1.107c2.822.858 4.053.736 5.284-.366l1.231-1.109c1.109-.986 1.226-2.088 1.226-4.053v-31.593zm63.203 45.358c-.496.49-.496.368-.862.123l-9.836-8.726c-.979-.865-1.469-1.599-1.469-3.197v-33.681c0-.366 0-.739-.496-1.108l-3.319-2.953c-.368-.238-.857-.361-1.347-.116l-6.277 2.946v31.721c0 .49-.123.981.373 1.347l2.823 2.456c.741.613 1.967 1.354 3.081.986l.979-.373c1.231-.491 1.47.244.734.862l-11.304 9.712c-.49.49-.618.368-.986.123l-9.957-8.849c-1.226-.986-1.226-1.231-1.226-2.829v-54.574c0-.613 0-.741-.618-1.231l-1.231-1.109c-1.231-1.102-1.72-.857-3.312-.116l-2.463 1.102c-.366.123-.741-.368-.122-.986l13.024-10.937c.496-.49.496-.366.865-.122l7.869 7.256c.986.981 1.47 1.594 1.47 3.191v20.526l16.35-10.323c.496-.247.979-.247 1.352.122l7.992 7.379c1.102.981 1.347 1.72 1.347 2.946v33.681c0 .618 0 .741.613 1.231l3.081 2.578c1.224 1.109 1.713.863 3.312.128l2.462-1.107c.373-.123.736.366.123.979l-13.026 10.943z" fill-rule="evenodd"/></svg>