<?xml version="1.0" standalone="no"?>
<!DOCTYPE svg PUBLIC "-//W3C//DTD SVG 20010904//EN"
 "http://www.w3.org/TR/2001/REC-SVG-20010904/DTD/svg10.dtd">
<svg version="1.0" xmlns="http://www.w3.org/2000/svg"
 width="16.000000pt" height="16.000000pt" viewBox="0 0 16.000000 16.000000"
 preserveAspectRatio="xMidYMid meet">
<metadata>
Created by potrace 1.11, written by Peter Selinger 2001-2013
</metadata>
<g transform="translate(0.000000,16.000000) scale(0.005926,-0.005926)"
fill="#000000" stroke="none">
<path d="M1098 2685 c-234 -44 -461 -154 -636 -307 -230 -203 -397 -498 -448
-788 -23 -136 -15 -430 15 -550 50 -197 144 -383 275 -546 120 -149 268 -266
451 -354 209 -101 319 -129 545 -137 188 -7 314 10 470 63 400 137 706 432
852 821 55 148 78 282 78 456 0 163 -11 245 -51 387 -71 247 -172 414 -365
600 -179 173 -353 270 -609 341 -68 19 -110 22 -290 25 -152 2 -231 -1 -287
-11z m1029 -731 c78 -38 115 -142 77 -217 -11 -20 -91 -112 -179 -205 -88 -92
-304 -320 -480 -506 -190 -201 -335 -346 -357 -357 -42 -21 -90 -24 -135 -8
-34 11 -526 518 -555 572 -57 103 24 237 144 237 67 0 90 -14 188 -117 46 -48
129 -134 184 -191 l100 -104 71 74 c89 94 383 403 595 626 91 96 181 182 200
192 44 24 101 25 147 4z"/>
</g>
</svg>
